<?xml version="1.0" encoding="utf-8"?>
<!-- Generator: Adobe Illustrator 23.0.3, SVG Export Plug-In . SVG Version: 6.00 Build 0)  -->
<svg version="1.1" id="Layer_1" xmlns="http://www.w3.org/2000/svg" xmlns:xlink="http://www.w3.org/1999/xlink" x="0px" y="0px"
	 viewBox="0 0 207 65" style="enable-background:new 0 0 207 65;" xml:space="preserve">
<style type="text/css">
	.st0{fill:#FFFFFF;}
	.st1{fill:#009BD9;}
</style>
<g>
	<rect x="116.53" y="41.53" class="st0" width="1.97" height="2.54"/>
	<rect x="116.53" y="46.26" class="st0" width="1.97" height="13.02"/>
	<path class="st0" d="M131.04,46.69c-0.79-0.43-1.64-0.64-2.54-0.64c-1.06,0-1.93,0.22-2.6,0.65c-0.68,0.44-1.25,0.96-1.72,1.59
		v-2.03h-1.95v13.02h1.95v-7.5c0-0.78,0.18-1.47,0.53-2.07c0.36-0.6,0.83-1.06,1.42-1.39c0.59-0.33,1.25-0.49,1.98-0.49
		c1.08,0,1.95,0.36,2.63,1.08c0.68,0.72,1.02,1.67,1.02,2.85v7.53h1.95v-7.58c0-1.23-0.25-2.27-0.74-3.11
		C132.47,47.75,131.83,47.12,131.04,46.69z"/>
	<path class="st0" d="M145.12,52.54c-0.66-0.26-1.36-0.46-2.1-0.61c-0.74-0.15-1.44-0.3-2.1-0.47c-0.66-0.16-1.2-0.39-1.61-0.66
		c-0.42-0.28-0.63-0.68-0.63-1.2c0-1.25,1.03-1.88,3.1-1.88c1.09,0,1.88,0.2,2.36,0.6c0.48,0.4,0.75,0.88,0.82,1.43h1.98
		c-0.07-0.64-0.29-1.24-0.66-1.8c-0.37-0.56-0.92-1.01-1.64-1.37c-0.72-0.35-1.65-0.53-2.8-0.53c-1.68,0-2.96,0.32-3.82,0.98
		c-0.86,0.65-1.29,1.57-1.29,2.75c0,0.8,0.21,1.43,0.63,1.89c0.42,0.46,0.95,0.82,1.61,1.07c0.66,0.25,1.36,0.46,2.1,0.61
		c0.74,0.16,1.44,0.32,2.1,0.48c0.66,0.17,1.2,0.4,1.61,0.69c0.42,0.3,0.63,0.71,0.63,1.25c0,0.43-0.12,0.79-0.36,1.07
		c-0.24,0.28-0.54,0.49-0.9,0.63c-0.36,0.14-0.72,0.23-1.11,0.29c-0.38,0.05-0.7,0.08-0.96,0.08c-0.83,0-1.51-0.13-2.03-0.38
		c-0.52-0.25-0.91-0.58-1.16-0.99c-0.25-0.41-0.4-0.83-0.46-1.26h-2.03c0.05,0.76,0.3,1.47,0.73,2.12c0.43,0.65,1.06,1.18,1.89,1.58
		c0.82,0.4,1.84,0.6,3.03,0.6c1.62,0,2.9-0.33,3.87-1c0.96-0.67,1.45-1.64,1.45-2.9c0-0.82-0.21-1.46-0.63-1.94
		C146.31,53.17,145.78,52.8,145.12,52.54z"/>
	<rect x="150.18" y="46.26" class="st0" width="1.97" height="13.02"/>
	<rect x="150.18" y="41.53" class="st0" width="1.97" height="2.54"/>
	<path class="st0" d="M166.03,48.35c-0.49-0.71-1.12-1.27-1.89-1.68c-0.77-0.41-1.7-0.61-2.77-0.61c-1.27,0-2.37,0.29-3.32,0.87
		c-0.95,0.58-1.68,1.37-2.2,2.37c-0.52,1-0.78,2.12-0.78,3.37c0,1.23,0.26,2.35,0.78,3.36c0.52,1.01,1.25,1.8,2.2,2.38
		c0.95,0.58,2.05,0.87,3.32,0.87c1.08,0,2-0.21,2.77-0.64c0.77-0.43,1.4-0.98,1.89-1.68v1.8c0,1.34-0.34,2.36-1.03,3.06
		c-0.69,0.7-1.78,1.06-3.27,1.06c-0.99,0-1.81-0.18-2.45-0.53c-0.64-0.36-1.09-0.86-1.35-1.5h-2.16c0.36,1.13,1.06,2.04,2.08,2.75
		c1.02,0.7,2.35,1.06,3.98,1.06c1.96,0,3.48-0.49,4.54-1.49c1.07-0.99,1.6-2.41,1.6-4.27V46.26h-1.95V48.35z M165.6,55.11
		c-0.36,0.74-0.87,1.32-1.54,1.76c-0.67,0.43-1.48,0.65-2.44,0.65c-0.96,0-1.78-0.22-2.47-0.65c-0.69-0.43-1.22-1.02-1.59-1.76
		c-0.36-0.74-0.55-1.55-0.55-2.44c0-0.9,0.18-1.72,0.55-2.45c0.36-0.73,0.89-1.31,1.59-1.75c0.69-0.43,1.52-0.65,2.47-0.65
		c0.95,0,1.77,0.22,2.44,0.65c0.67,0.43,1.18,1.02,1.54,1.75c0.36,0.73,0.53,1.54,0.53,2.45C166.13,53.56,165.95,54.37,165.6,55.11z
		"/>
	<path class="st0" d="M180.52,46.69c-0.79-0.43-1.64-0.64-2.54-0.64c-1.06,0-1.93,0.22-2.6,0.65c-0.68,0.44-1.25,0.96-1.72,1.59
		v-6.79h-1.95v17.78h1.95v-7.5c0-0.78,0.18-1.47,0.53-2.07c0.36-0.6,0.83-1.06,1.42-1.39c0.59-0.33,1.25-0.49,1.98-0.49
		c1.08,0,1.95,0.36,2.63,1.08c0.68,0.72,1.02,1.67,1.02,2.85v7.53h1.95v-7.58c0-1.23-0.25-2.27-0.74-3.11
		C181.95,47.75,181.31,47.12,180.52,46.69z"/>
	<polygon class="st0" points="193.14,46.26 190.55,46.26 190.55,41.52 190.48,41.52 188.59,41.52 188.53,41.52 188.53,46.26 
		185.94,46.26 185.54,46.26 185.54,47.98 185.94,47.98 188.53,47.98 188.53,59.29 188.59,59.29 190.48,59.29 190.55,59.29 
		190.55,47.98 193.14,47.98 193.54,47.98 193.54,46.26 	"/>
	<path class="st0" d="M206.37,53.65c-0.42-0.48-0.96-0.85-1.62-1.11c-0.66-0.26-1.36-0.46-2.1-0.61c-0.74-0.15-1.44-0.3-2.1-0.47
		c-0.66-0.16-1.2-0.39-1.61-0.66c-0.42-0.28-0.63-0.68-0.63-1.2c0-1.25,1.03-1.88,3.1-1.88c1.09,0,1.88,0.2,2.36,0.6
		c0.48,0.4,0.75,0.88,0.82,1.43h1.98c-0.07-0.64-0.29-1.24-0.66-1.8c-0.37-0.56-0.92-1.01-1.64-1.37c-0.72-0.35-1.65-0.53-2.8-0.53
		c-1.68,0-2.96,0.32-3.82,0.98c-0.86,0.65-1.29,1.57-1.29,2.75c0,0.8,0.21,1.43,0.63,1.89c0.42,0.46,0.95,0.82,1.61,1.07
		c0.66,0.25,1.36,0.46,2.1,0.61c0.74,0.16,1.44,0.32,2.1,0.48c0.66,0.17,1.2,0.4,1.61,0.69c0.42,0.3,0.63,0.71,0.63,1.25
		c0,0.43-0.12,0.79-0.36,1.07c-0.24,0.28-0.54,0.49-0.9,0.63c-0.36,0.14-0.72,0.23-1.11,0.29c-0.38,0.05-0.7,0.08-0.96,0.08
		c-0.83,0-1.51-0.13-2.03-0.38c-0.52-0.25-0.91-0.58-1.16-0.99c-0.25-0.41-0.4-0.83-0.46-1.26h-2.03c0.05,0.76,0.3,1.47,0.73,2.12
		c0.43,0.65,1.06,1.18,1.89,1.58c0.82,0.4,1.84,0.6,3.03,0.6c1.62,0,2.9-0.33,3.87-1c0.96-0.67,1.45-1.64,1.45-2.9
		C207,54.77,206.79,54.13,206.37,53.65z"/>
	
		<rect x="54.98" y="-12.09" transform="matrix(-1.836970e-16 1 -1 -1.836970e-16 99.0895 -13.4507)" class="st1" width="2.58" height="109.82"/>
	<rect x="178.9" y="9.65" class="st1" width="4.8" height="25.03"/>
	<rect x="186.67" y="16.88" class="st1" width="4.8" height="17.8"/>
	<rect x="194.43" y="9.65" class="st1" width="4.8" height="25.03"/>
	<rect x="202.2" y="0.36" class="st1" width="4.8" height="34.32"/>
	<g>
		<path class="st0" d="M21.93,15.69c-1.52-0.82-3.33-1.22-5.42-1.22h-6.27c-0.85,0-1.61-0.2-2.28-0.61
			c-0.67-0.41-1.19-0.95-1.57-1.62C6.02,11.56,5.83,10.82,5.83,10c0-0.78,0.19-1.52,0.56-2.21C6.77,7.11,7.3,6.56,7.99,6.13
			c0.69-0.42,1.45-0.64,2.3-0.64h14.21V0.35H9.75c-1.86,0-3.53,0.42-5,1.27C3.28,2.47,2.12,3.64,1.27,5.13C0.42,6.61,0,8.34,0,10.3
			c0,1.96,0.44,3.66,1.32,5.1c0.88,1.44,2.08,2.56,3.6,3.36c1.52,0.8,3.24,1.2,5.17,1.2h6.13c0.91,0,1.72,0.21,2.43,0.64
			c0.7,0.42,1.25,1,1.64,1.72c0.39,0.72,0.59,1.52,0.59,2.4c0,0.82-0.2,1.59-0.61,2.33c-0.41,0.74-0.96,1.33-1.67,1.79
			c-0.7,0.46-1.53,0.69-2.47,0.69H1.37v5.15h15.49c1.86,0,3.54-0.43,5.02-1.3c1.49-0.86,2.66-2.09,3.53-3.68
			c0.87-1.58,1.3-3.47,1.3-5.66c0-1.86-0.42-3.51-1.25-4.95C24.63,17.63,23.45,16.51,21.93,15.69z"/>
		<path class="st0" d="M37.06,3.39h-5.59v24.17c0,2.19,0.63,3.92,1.89,5.2c1.26,1.27,3,1.91,5.22,1.91h6.22v-4.8h-5.24
			c-0.75,0-1.36-0.24-1.81-0.71c-0.46-0.47-0.69-1.09-0.69-1.84V14.46h7.79v-4.8h-7.79V3.39z"/>
		<path class="st0" d="M67.89,10.81c-1.91-1.16-4.22-1.74-6.94-1.74c-2.74,0-5.11,0.58-7.08,1.74c-1.98,1.16-3.5,2.73-4.56,4.7
			c-1.06,1.98-1.59,4.21-1.59,6.69c0,2.39,0.47,4.57,1.4,6.54c0.93,1.98,2.26,3.55,3.99,4.73c1.73,1.18,3.79,1.76,6.18,1.76
			c1.54,0,2.88-0.24,4.02-0.73c1.14-0.49,2.11-1.14,2.89-1.94c0.78-0.8,1.42-1.66,1.91-2.57h0.1v4.66h5.64V22.11
			c0-2.42-0.51-4.62-1.54-6.59C71.28,13.54,69.81,11.97,67.89,10.81z M67.23,26.35c-0.62,1.26-1.48,2.25-2.57,2.99
			c-1.1,0.74-2.38,1.1-3.85,1.1c-1.57,0-2.9-0.37-3.99-1.1c-1.1-0.73-1.94-1.73-2.52-2.99c-0.59-1.26-0.88-2.65-0.88-4.19
			c0-1.57,0.29-2.97,0.88-4.21c0.59-1.24,1.44-2.23,2.55-2.97c1.11-0.73,2.45-1.1,4.02-1.1c1.5,0,2.79,0.37,3.87,1.1
			c1.08,0.73,1.91,1.72,2.5,2.94c0.59,1.23,0.88,2.62,0.88,4.19C68.15,23.68,67.85,25.09,67.23,26.35z"/>
		<path class="st0" d="M81.17,11.55c-1.26,1.26-1.89,3-1.89,5.22v17.89h5.64V17.01c0-0.78,0.22-1.4,0.66-1.86
			c0.44-0.46,1.05-0.69,1.84-0.69h6.25v-4.8h-7.28C84.17,9.66,82.43,10.29,81.17,11.55z"/>
		<path class="st0" d="M103.44,3.39h-5.59v24.17c0,2.19,0.63,3.92,1.89,5.2c1.26,1.27,3,1.91,5.22,1.91h6.22v-4.8h-5.24
			c-0.75,0-1.36-0.24-1.81-0.71c-0.46-0.47-0.69-1.09-0.69-1.84V14.46h7.79v-4.8h-7.79V3.39z"/>
		<path class="st0" d="M138.54,21.72c0,1.54-0.33,2.93-0.98,4.19c-0.65,1.26-1.58,2.27-2.77,3.04c-1.19,0.77-2.64,1.15-4.34,1.15
			c-1.63,0-3.06-0.38-4.26-1.15c-1.21-0.77-2.15-1.78-2.82-3.04c-0.67-1.26-1-2.65-1-4.19V0.35h-5.83v20.88
			c0,2.91,0.6,5.41,1.79,7.5c1.19,2.09,2.83,3.7,4.93,4.83c2.09,1.13,4.49,1.69,7.21,1.69c2.71,0,5.11-0.56,7.21-1.69
			c2.09-1.13,3.74-2.74,4.95-4.83c1.21-2.09,1.81-4.59,1.81-7.5V0.35h-5.88V21.72z"/>
		<path class="st0" d="M170.62,22.7c-0.67-1.11-1.64-1.94-2.92-2.5c-1.27-0.56-2.81-0.83-4.61-0.83h-4.75
			c-0.82,0-1.47-0.24-1.96-0.73c-0.49-0.49-0.74-1.06-0.74-1.72c0-0.69,0.25-1.27,0.74-1.74c0.49-0.47,1.11-0.71,1.86-0.71h11.08
			v-4.8H157.7c-1.44,0-2.73,0.34-3.87,1.03c-1.14,0.69-2.05,1.59-2.72,2.7c-0.67,1.11-1,2.34-1,3.67c0,1.67,0.36,3.05,1.08,4.14
			c0.72,1.1,1.7,1.9,2.94,2.43c1.24,0.52,2.66,0.78,4.26,0.78h4.9c0.56,0,1.05,0.12,1.47,0.37c0.42,0.25,0.75,0.57,0.98,0.96
			c0.23,0.39,0.34,0.85,0.34,1.37c0,0.46-0.12,0.9-0.37,1.32c-0.24,0.43-0.59,0.77-1.03,1.03c-0.44,0.26-0.96,0.39-1.54,0.39h-12.06
			v4.8h12.65c1.5,0,2.85-0.35,4.04-1.05c1.19-0.7,2.13-1.65,2.82-2.84c0.69-1.19,1.03-2.48,1.03-3.85
			C171.62,25.21,171.29,23.81,170.62,22.7z"/>
	</g>
</g>
</svg>
