<?xml version="1.0" encoding="UTF-8"?>
<svg width="207px" height="65px" viewBox="0 0 207 65" version="1.1" xmlns="http://www.w3.org/2000/svg" xmlns:xlink="http://www.w3.org/1999/xlink">
    <!-- Generator: Sketch 52.6 (67491) - http://www.bohemiancoding.com/sketch -->
    <title>logo-dark-blue</title>
    <desc>Created with Sketch.</desc>
    <g id="Page-1" stroke="none" stroke-width="1" fill="none" fill-rule="evenodd">
        <g id="logo-dark-blue">
            <rect id="Rectangle" fill="#000000" x="116.53" y="41.53" width="1.97" height="2.54"></rect>
            <rect id="Rectangle" fill="#000000" x="116.53" y="46.26" width="1.97" height="13.02"></rect>
            <path d="M131.04,46.69 C130.25,46.26 129.4,46.05 128.5,46.05 C127.44,46.05 126.57,46.27 125.9,46.7 C125.22,47.14 124.65,47.66 124.18,48.29 L124.18,46.26 L122.23,46.26 L122.23,59.28 L124.18,59.28 L124.18,51.78 C124.18,51 124.36,50.31 124.71,49.71 C125.07,49.11 125.54,48.65 126.13,48.32 C126.72,47.99 127.38,47.83 128.11,47.83 C129.19,47.83 130.06,48.19 130.74,48.91 C131.42,49.63 131.76,50.58 131.76,51.76 L131.76,59.29 L133.71,59.29 L133.71,51.71 C133.71,50.48 133.46,49.44 132.97,48.6 C132.47,47.75 131.83,47.12 131.04,46.69 Z" id="Path" fill="#000000"></path>
            <path d="M145.12,52.54 C144.46,52.28 143.76,52.08 143.02,51.93 C142.28,51.78 141.58,51.63 140.92,51.46 C140.26,51.3 139.72,51.07 139.31,50.8 C138.89,50.52 138.68,50.12 138.68,49.6 C138.68,48.35 139.71,47.72 141.78,47.72 C142.87,47.72 143.66,47.92 144.14,48.32 C144.62,48.72 144.89,49.2 144.96,49.75 L146.94,49.75 C146.87,49.11 146.65,48.51 146.28,47.95 C145.91,47.39 145.36,46.94 144.64,46.58 C143.92,46.23 142.99,46.05 141.84,46.05 C140.16,46.05 138.88,46.37 138.02,47.03 C137.16,47.68 136.73,48.6 136.73,49.78 C136.73,50.58 136.94,51.21 137.36,51.67 C137.78,52.13 138.31,52.49 138.97,52.74 C139.63,52.99 140.33,53.2 141.07,53.35 C141.81,53.51 142.51,53.67 143.17,53.83 C143.83,54 144.37,54.23 144.78,54.52 C145.2,54.82 145.41,55.23 145.41,55.77 C145.41,56.2 145.29,56.56 145.05,56.84 C144.81,57.12 144.51,57.33 144.15,57.47 C143.79,57.61 143.43,57.7 143.04,57.76 C142.66,57.81 142.34,57.84 142.08,57.84 C141.25,57.84 140.57,57.71 140.05,57.46 C139.53,57.21 139.14,56.88 138.89,56.47 C138.64,56.06 138.49,55.64 138.43,55.21 L136.4,55.21 C136.45,55.97 136.7,56.68 137.13,57.33 C137.56,57.98 138.19,58.51 139.02,58.91 C139.84,59.31 140.86,59.51 142.05,59.51 C143.67,59.51 144.95,59.18 145.92,58.51 C146.88,57.84 147.37,56.87 147.37,55.61 C147.37,54.79 147.16,54.15 146.74,53.67 C146.31,53.17 145.78,52.8 145.12,52.54 Z" id="Path" fill="#000000"></path>
            <rect id="Rectangle" fill="#000000" x="150.18" y="46.26" width="1.97" height="13.02"></rect>
            <rect id="Rectangle" fill="#FFFFFF" x="150.18" y="41.53" width="1.97" height="2.54"></rect>
            <path d="M166.03,48.35 C165.54,47.64 164.91,47.08 164.14,46.67 C163.37,46.26 162.44,46.06 161.37,46.06 C160.1,46.06 159,46.35 158.05,46.93 C157.1,47.51 156.37,48.3 155.85,49.3 C155.33,50.3 155.07,51.42 155.07,52.67 C155.07,53.9 155.33,55.02 155.85,56.03 C156.37,57.04 157.1,57.83 158.05,58.41 C159,58.99 160.1,59.28 161.37,59.28 C162.45,59.28 163.37,59.07 164.14,58.64 C164.91,58.21 165.54,57.66 166.03,56.96 L166.03,58.76 C166.03,60.1 165.69,61.12 165,61.82 C164.31,62.52 163.22,62.88 161.73,62.88 C160.74,62.88 159.92,62.7 159.28,62.35 C158.64,61.99 158.19,61.49 157.93,60.85 L155.77,60.85 C156.13,61.98 156.83,62.89 157.85,63.6 C158.87,64.3 160.2,64.66 161.83,64.66 C163.79,64.66 165.31,64.17 166.37,63.17 C167.44,62.18 167.97,60.76 167.97,58.9 L167.97,46.26 L166.02,46.26 L166.02,48.35 L166.03,48.35 Z M165.6,55.11 C165.24,55.85 164.73,56.43 164.06,56.87 C163.39,57.3 162.58,57.52 161.62,57.52 C160.66,57.52 159.84,57.3 159.15,56.87 C158.46,56.44 157.93,55.85 157.56,55.11 C157.2,54.37 157.01,53.56 157.01,52.67 C157.01,51.77 157.19,50.95 157.56,50.22 C157.92,49.49 158.45,48.91 159.15,48.47 C159.84,48.04 160.67,47.82 161.62,47.82 C162.57,47.82 163.39,48.04 164.06,48.47 C164.73,48.9 165.24,49.49 165.6,50.22 C165.96,50.95 166.13,51.76 166.13,52.67 C166.13,53.56 165.95,54.37 165.6,55.11 Z" id="Shape" fill="#000000" fill-rule="nonzero"></path>
            <path d="M180.52,46.69 C179.73,46.26 178.88,46.05 177.98,46.05 C176.92,46.05 176.05,46.27 175.38,46.7 C174.7,47.14 174.13,47.66 173.66,48.29 L173.66,41.5 L171.71,41.5 L171.71,59.28 L173.66,59.28 L173.66,51.78 C173.66,51 173.84,50.31 174.19,49.71 C174.55,49.11 175.02,48.65 175.61,48.32 C176.2,47.99 176.86,47.83 177.59,47.83 C178.67,47.83 179.54,48.19 180.22,48.91 C180.9,49.63 181.24,50.58 181.24,51.76 L181.24,59.29 L183.19,59.29 L183.19,51.71 C183.19,50.48 182.94,49.44 182.45,48.6 C181.95,47.75 181.31,47.12 180.52,46.69 Z" id="Path" fill="#000000"></path>
            <polygon id="Path" fill="#000000" points="193.14 46.26 190.55 46.26 190.55 41.52 190.48 41.52 188.59 41.52 188.53 41.52 188.53 46.26 185.94 46.26 185.54 46.26 185.54 47.98 185.94 47.98 188.53 47.98 188.53 59.29 188.59 59.29 190.48 59.29 190.55 59.29 190.55 47.98 193.14 47.98 193.54 47.98 193.54 46.26"></polygon>
            <path d="M206.37,53.65 C205.95,53.17 205.41,52.8 204.75,52.54 C204.09,52.28 203.39,52.08 202.65,51.93 C201.91,51.78 201.21,51.63 200.55,51.46 C199.89,51.3 199.35,51.07 198.94,50.8 C198.52,50.52 198.31,50.12 198.31,49.6 C198.31,48.35 199.34,47.72 201.41,47.72 C202.5,47.72 203.29,47.92 203.77,48.32 C204.25,48.72 204.52,49.2 204.59,49.75 L206.57,49.75 C206.5,49.11 206.28,48.51 205.91,47.95 C205.54,47.39 204.99,46.94 204.27,46.58 C203.55,46.23 202.62,46.05 201.47,46.05 C199.79,46.05 198.51,46.37 197.65,47.03 C196.79,47.68 196.36,48.6 196.36,49.78 C196.36,50.58 196.57,51.21 196.99,51.67 C197.41,52.13 197.94,52.49 198.6,52.74 C199.26,52.99 199.96,53.2 200.7,53.35 C201.44,53.51 202.14,53.67 202.8,53.83 C203.46,54 204,54.23 204.41,54.52 C204.83,54.82 205.04,55.23 205.04,55.77 C205.04,56.2 204.92,56.56 204.68,56.84 C204.44,57.12 204.14,57.33 203.78,57.47 C203.42,57.61 203.06,57.7 202.67,57.76 C202.29,57.81 201.97,57.84 201.71,57.84 C200.88,57.84 200.2,57.71 199.68,57.46 C199.16,57.21 198.77,56.88 198.52,56.47 C198.27,56.06 198.12,55.64 198.06,55.21 L196.03,55.21 C196.08,55.97 196.33,56.68 196.76,57.33 C197.19,57.98 197.82,58.51 198.65,58.91 C199.47,59.31 200.49,59.51 201.68,59.51 C203.3,59.51 204.58,59.18 205.55,58.51 C206.51,57.84 207,56.87 207,55.61 C207,54.77 206.79,54.13 206.37,53.65 Z" id="Path" fill="#000000"></path>
            <rect id="Rectangle" fill="#009BD9" transform="translate(56.269500, 42.819300) rotate(90.000000) translate(-56.269500, -42.819300) " x="54.9795" y="-12.0907" width="2.58" height="109.82"></rect>
            <rect id="Rectangle" fill="#009BD9" x="178.9" y="9.65" width="4.8" height="25.03"></rect>
            <rect id="Rectangle" fill="#009BD9" x="186.67" y="16.88" width="4.8" height="17.8"></rect>
            <rect id="Rectangle" fill="#009BD9" x="194.43" y="9.65" width="4.8" height="25.03"></rect>
            <rect id="Rectangle" fill="#009BD9" x="202.2" y="0.36" width="4.8" height="34.32"></rect>
            <g id="Group" fill="#000000">
                <path d="M21.93,15.69 C20.41,14.87 18.6,14.47 16.51,14.47 L10.24,14.47 C9.39,14.47 8.63,14.27 7.96,13.86 C7.29,13.45 6.77,12.91 6.39,12.24 C6.02,11.56 5.83,10.82 5.83,10 C5.83,9.22 6.02,8.48 6.39,7.79 C6.77,7.11 7.3,6.56 7.99,6.13 C8.68,5.71 9.44,5.49 10.29,5.49 L24.5,5.49 L24.5,0.35 L9.75,0.35 C7.89,0.35 6.22,0.77 4.75,1.62 C3.28,2.47 2.12,3.64 1.27,5.13 C0.42,6.61 0,8.34 0,10.3 C0,12.26 0.44,13.96 1.32,15.4 C2.2,16.84 3.4,17.96 4.92,18.76 C6.44,19.56 8.16,19.96 10.09,19.96 L16.22,19.96 C17.13,19.96 17.94,20.17 18.65,20.6 C19.35,21.02 19.9,21.6 20.29,22.32 C20.68,23.04 20.88,23.84 20.88,24.72 C20.88,25.54 20.68,26.31 20.27,27.05 C19.86,27.79 19.31,28.38 18.6,28.84 C17.9,29.3 17.07,29.53 16.13,29.53 L1.37,29.53 L1.37,34.68 L16.86,34.68 C18.72,34.68 20.4,34.25 21.88,33.38 C23.37,32.52 24.54,31.29 25.41,29.7 C26.28,28.12 26.71,26.23 26.71,24.04 C26.71,22.18 26.29,20.53 25.46,19.09 C24.63,17.63 23.45,16.51 21.93,15.69 Z" id="Path"></path>
                <path d="M37.06,3.39 L31.47,3.39 L31.47,27.56 C31.47,29.75 32.1,31.48 33.36,32.76 C34.62,34.03 36.36,34.67 38.58,34.67 L44.8,34.67 L44.8,29.87 L39.56,29.87 C38.81,29.87 38.2,29.63 37.75,29.16 C37.29,28.69 37.06,28.07 37.06,27.32 L37.06,14.46 L44.85,14.46 L44.85,9.66 L37.06,9.66 L37.06,3.39 Z" id="Path"></path>
                <path d="M67.89,10.81 C65.98,9.65 63.67,9.07 60.95,9.07 C58.21,9.07 55.84,9.65 53.87,10.81 C51.89,11.97 50.37,13.54 49.31,15.51 C48.25,17.49 47.72,19.72 47.72,22.2 C47.72,24.59 48.19,26.77 49.12,28.74 C50.05,30.72 51.38,32.29 53.11,33.47 C54.84,34.65 56.9,35.23 59.29,35.23 C60.83,35.23 62.17,34.99 63.31,34.5 C64.45,34.01 65.42,33.36 66.2,32.56 C66.98,31.76 67.62,30.9 68.11,29.99 L68.21,29.99 L68.21,34.65 L73.85,34.65 L73.85,22.11 C73.85,19.69 73.34,17.49 72.31,15.52 C71.28,13.54 69.81,11.97 67.89,10.81 Z M67.23,26.35 C66.61,27.61 65.75,28.6 64.66,29.34 C63.56,30.08 62.28,30.44 60.81,30.44 C59.24,30.44 57.91,30.07 56.82,29.34 C55.72,28.61 54.88,27.61 54.3,26.35 C53.71,25.09 53.42,23.7 53.42,22.16 C53.42,20.59 53.71,19.19 54.3,17.95 C54.89,16.71 55.74,15.72 56.85,14.98 C57.96,14.25 59.3,13.88 60.87,13.88 C62.37,13.88 63.66,14.25 64.74,14.98 C65.82,15.71 66.65,16.7 67.24,17.92 C67.83,19.15 68.12,20.54 68.12,22.11 C68.15,23.68 67.85,25.09 67.23,26.35 Z" id="Shape" fill-rule="nonzero"></path>
                <path d="M81.17,11.55 C79.91,12.81 79.28,14.55 79.28,16.77 L79.28,34.66 L84.92,34.66 L84.92,17.01 C84.92,16.23 85.14,15.61 85.58,15.15 C86.02,14.69 86.63,14.46 87.42,14.46 L93.67,14.46 L93.67,9.66 L86.39,9.66 C84.17,9.66 82.43,10.29 81.17,11.55 Z" id="Path"></path>
                <path d="M103.44,3.39 L97.85,3.39 L97.85,27.56 C97.85,29.75 98.48,31.48 99.74,32.76 C101,34.03 102.74,34.67 104.96,34.67 L111.18,34.67 L111.18,29.87 L105.94,29.87 C105.19,29.87 104.58,29.63 104.13,29.16 C103.67,28.69 103.44,28.07 103.44,27.32 L103.44,14.46 L111.23,14.46 L111.23,9.66 L103.44,9.66 L103.44,3.39 Z" id="Path"></path>
                <path d="M138.54,21.72 C138.54,23.26 138.21,24.65 137.56,25.91 C136.91,27.17 135.98,28.18 134.79,28.95 C133.6,29.72 132.15,30.1 130.45,30.1 C128.82,30.1 127.39,29.72 126.19,28.95 C124.98,28.18 124.04,27.17 123.37,25.91 C122.7,24.65 122.37,23.26 122.37,21.72 L122.37,0.35 L116.54,0.35 L116.54,21.23 C116.54,24.14 117.14,26.64 118.33,28.73 C119.52,30.82 121.16,32.43 123.26,33.56 C125.35,34.69 127.75,35.25 130.47,35.25 C133.18,35.25 135.58,34.69 137.68,33.56 C139.77,32.43 141.42,30.82 142.63,28.73 C143.84,26.64 144.44,24.14 144.44,21.23 L144.44,0.35 L138.56,0.35 L138.56,21.72 L138.54,21.72 Z" id="Path"></path>
                <path d="M170.62,22.7 C169.95,21.59 168.98,20.76 167.7,20.2 C166.43,19.64 164.89,19.37 163.09,19.37 L158.34,19.37 C157.52,19.37 156.87,19.13 156.38,18.64 C155.89,18.15 155.64,17.58 155.64,16.92 C155.64,16.23 155.89,15.65 156.38,15.18 C156.87,14.71 157.49,14.47 158.24,14.47 L169.32,14.47 L169.32,9.67 L157.7,9.67 C156.26,9.67 154.97,10.01 153.83,10.7 C152.69,11.39 151.78,12.29 151.11,13.4 C150.44,14.51 150.11,15.74 150.11,17.07 C150.11,18.74 150.47,20.12 151.19,21.21 C151.91,22.31 152.89,23.11 154.13,23.64 C155.37,24.16 156.79,24.42 158.39,24.42 L163.29,24.42 C163.85,24.42 164.34,24.54 164.76,24.79 C165.18,25.04 165.51,25.36 165.74,25.75 C165.97,26.14 166.08,26.6 166.08,27.12 C166.08,27.58 165.96,28.02 165.71,28.44 C165.47,28.87 165.12,29.21 164.68,29.47 C164.24,29.73 163.72,29.86 163.14,29.86 L151.08,29.86 L151.08,34.66 L163.73,34.66 C165.23,34.66 166.58,34.31 167.77,33.61 C168.96,32.91 169.9,31.96 170.59,30.77 C171.28,29.58 171.62,28.29 171.62,26.92 C171.62,25.21 171.29,23.81 170.62,22.7 Z" id="Path"></path>
            </g>
        </g>
    </g>
</svg>