<?xml version="1.0" encoding="utf-8"?>
<!-- Generator: Adobe Illustrator 23.0.6, SVG Export Plug-In . SVG Version: 6.00 Build 0)  -->
<svg version="1.1" id="Layer_1" xmlns="http://www.w3.org/2000/svg" xmlns:xlink="http://www.w3.org/1999/xlink" x="0px" y="0px"
	 viewBox="0 0 207 65" style="enable-background:new 0 0 207 65;" xml:space="preserve">
<style type="text/css">
	.st0{fill:#FFFFFF;}
	.st1{fill:#009BD9;}
	.st2{fill:#FFDA00;}
</style>
<g>
	<rect x="116.5" y="41.3" class="st0" width="2" height="2.5"/>
	<rect x="116.5" y="46" class="st0" width="2" height="13"/>
	<path class="st0" d="M131,46.5c-0.8-0.4-1.6-0.6-2.5-0.6c-1.1,0-1.9,0.2-2.6,0.6c-0.7,0.4-1.2,1-1.7,1.6v-2h-1.9v13h1.9v-7.5
		c0-0.8,0.2-1.5,0.5-2.1c0.4-0.6,0.8-1.1,1.4-1.4c0.6-0.3,1.2-0.5,2-0.5c1.1,0,1.9,0.4,2.6,1.1c0.7,0.7,1,1.7,1,2.9v7.5h1.9v-7.6
		c0-1.2-0.2-2.3-0.7-3.1C132.5,47.5,131.8,46.9,131,46.5z"/>
	<path class="st0" d="M145.1,52.3c-0.7-0.3-1.4-0.5-2.1-0.6c-0.7-0.1-1.4-0.3-2.1-0.5c-0.7-0.2-1.2-0.4-1.6-0.7
		c-0.4-0.3-0.6-0.7-0.6-1.2c0-1.2,1-1.9,3.1-1.9c1.1,0,1.9,0.2,2.4,0.6s0.7,0.9,0.8,1.4h2c-0.1-0.6-0.3-1.2-0.7-1.8s-0.9-1-1.6-1.4
		c-0.7-0.4-1.7-0.5-2.8-0.5c-1.7,0-3,0.3-3.8,1c-0.9,0.6-1.3,1.6-1.3,2.8c0,0.8,0.2,1.4,0.6,1.9s1,0.8,1.6,1.1
		c0.7,0.2,1.4,0.5,2.1,0.6c0.7,0.2,1.4,0.3,2.1,0.5c0.7,0.2,1.2,0.4,1.6,0.7s0.6,0.7,0.6,1.2c0,0.4-0.1,0.8-0.4,1.1
		c-0.2,0.3-0.5,0.5-0.9,0.6s-0.7,0.2-1.1,0.3c-0.4,0-0.7,0.1-1,0.1c-0.8,0-1.5-0.1-2-0.4c-0.5-0.2-0.9-0.6-1.2-1
		c-0.2-0.4-0.4-0.8-0.5-1.3h-2c0,0.8,0.3,1.5,0.7,2.1s1.1,1.2,1.9,1.6c0.8,0.4,1.8,0.6,3,0.6c1.6,0,2.9-0.3,3.9-1s1.4-1.6,1.4-2.9
		c0-0.8-0.2-1.5-0.6-1.9C146.3,53,145.8,52.6,145.1,52.3z"/>
	<rect x="150.2" y="46" class="st0" width="2" height="13"/>
	<rect x="150.2" y="41.3" class="st0" width="2" height="2.5"/>
	<path class="st0" d="M166,48.1c-0.5-0.7-1.1-1.3-1.9-1.7c-0.8-0.4-1.7-0.6-2.8-0.6c-1.3,0-2.4,0.3-3.3,0.9c-1,0.6-1.7,1.4-2.2,2.4
		s-0.8,2.1-0.8,3.4c0,1.2,0.3,2.4,0.8,3.4s1.2,1.8,2.2,2.4s2,0.9,3.3,0.9c1.1,0,2-0.2,2.8-0.6s1.4-1,1.9-1.7v1.8
		c0,1.3-0.3,2.4-1,3.1c-0.7,0.7-1.8,1.1-3.3,1.1c-1,0-1.8-0.2-2.4-0.5s-1.1-0.9-1.3-1.5h-2.2c0.4,1.1,1.1,2,2.1,2.8
		c1,0.7,2.4,1.1,4,1.1c2,0,3.5-0.5,4.5-1.5c1.1-1,1.6-2.4,1.6-4.3V46h-2L166,48.1L166,48.1z M165.6,54.9c-0.4,0.7-0.9,1.3-1.5,1.8
		s-1.5,0.6-2.4,0.6c-1,0-1.8-0.2-2.5-0.6c-0.7-0.4-1.2-1-1.6-1.8c-0.4-0.7-0.6-1.6-0.6-2.4s0.2-1.7,0.6-2.4c0.4-0.7,0.9-1.3,1.6-1.8
		c0.7-0.4,1.5-0.6,2.5-0.6s1.8,0.2,2.4,0.6c0.7,0.4,1.2,1,1.5,1.8c0.4,0.7,0.5,1.5,0.5,2.4S166,54.2,165.6,54.9z"/>
	<path class="st0" d="M180.5,46.5c-0.8-0.4-1.6-0.6-2.5-0.6c-1.1,0-1.9,0.2-2.6,0.6c-0.7,0.4-1.2,1-1.7,1.6v-6.8h-1.9v17.8h1.9v-7.5
		c0-0.8,0.2-1.5,0.5-2.1c0.4-0.6,0.8-1.1,1.4-1.4c0.6-0.3,1.2-0.5,2-0.5c1.1,0,1.9,0.4,2.6,1.1c0.7,0.7,1,1.7,1,2.9v7.5h1.9v-7.6
		c0-1.2-0.2-2.3-0.7-3.1C182,47.5,181.3,46.9,180.5,46.5z"/>
	<polygon class="st0" points="193.1,46 190.5,46 190.5,41.3 190.5,41.3 188.6,41.3 188.5,41.3 188.5,46 185.9,46 185.5,46 
		185.5,47.8 185.9,47.8 188.5,47.8 188.5,59.1 188.6,59.1 190.5,59.1 190.5,59.1 190.5,47.8 193.1,47.8 193.5,47.8 193.5,46 	"/>
	<path class="st0" d="M206.4,53.4c-0.4-0.5-1-0.8-1.6-1.1c-0.7-0.3-1.4-0.5-2.1-0.6c-0.7-0.1-1.4-0.3-2.1-0.5
		c-0.7-0.2-1.2-0.4-1.6-0.7c-0.4-0.3-0.6-0.7-0.6-1.2c0-1.2,1-1.9,3.1-1.9c1.1,0,1.9,0.2,2.4,0.6c0.5,0.4,0.7,0.9,0.8,1.4h2
		c-0.1-0.6-0.3-1.2-0.7-1.8s-0.9-1-1.6-1.4s-1.7-0.5-2.8-0.5c-1.7,0-3,0.3-3.8,1c-0.9,0.6-1.3,1.6-1.3,2.8c0,0.8,0.2,1.4,0.6,1.9
		c0.4,0.5,1,0.8,1.6,1.1c0.7,0.2,1.4,0.5,2.1,0.6c0.7,0.2,1.4,0.3,2.1,0.5c0.7,0.2,1.2,0.4,1.6,0.7s0.6,0.7,0.6,1.2
		c0,0.4-0.1,0.8-0.4,1.1c-0.2,0.3-0.5,0.5-0.9,0.6s-0.7,0.2-1.1,0.3c-0.4,0-0.7,0.1-1,0.1c-0.8,0-1.5-0.1-2-0.4
		c-0.5-0.2-0.9-0.6-1.2-1c-0.2-0.4-0.4-0.8-0.5-1.3h-2c0,0.8,0.3,1.5,0.7,2.1s1.1,1.2,1.9,1.6s1.8,0.6,3,0.6c1.6,0,2.9-0.3,3.9-1
		s1.4-1.6,1.4-2.9C207,54.6,206.8,53.9,206.4,53.4z"/>
	<rect x="1.4" y="41.3" class="st1" width="109.8" height="2.6"/>
	<rect x="178.9" y="9.4" class="st1" width="4.8" height="13.7"/>
	<rect x="186.7" y="16.7" class="st1" width="4.8" height="6.4"/>
	<rect x="194.4" y="9.4" class="st1" width="4.8" height="13.7"/>
	<rect x="202.2" y="0.2" class="st1" width="4.8" height="22.9"/>
	<rect x="186.7" y="23.1" class="st2" width="4.8" height="11.4"/>
	<rect x="178.9" y="23.1" class="st2" width="4.8" height="11.4"/>
	<rect x="194.4" y="23.1" class="st2" width="4.8" height="11.4"/>
	<rect x="202.2" y="23.1" class="st2" width="4.8" height="11.4"/>
	<g>
		<path class="st0" d="M21.9,15.5c-1.5-0.8-3.3-1.2-5.4-1.2h-6.3c-0.8,0-1.6-0.2-2.3-0.6c-0.7-0.4-1.2-1-1.6-1.6
			C6,11.4,5.8,10.6,5.8,9.8S6,8.3,6.4,7.6S7.3,6.4,8,5.9c0.7-0.4,1.4-0.6,2.3-0.6h14.2V0.2H9.7c-1.9,0-3.5,0.4-5,1.3S2.1,3.5,1.2,5
			C0.4,6.4,0,8.1,0,10.1s0.4,3.7,1.3,5.1s2.1,2.6,3.6,3.4s3.2,1.2,5.2,1.2h6.1c0.9,0,1.7,0.2,2.4,0.6c0.7,0.4,1.2,1,1.6,1.7
			s0.6,1.5,0.6,2.4c0,0.8-0.2,1.6-0.6,2.3c-0.4,0.7-1,1.3-1.7,1.8S17,29.3,16,29.3H1.4v5.2h15.5c1.9,0,3.5-0.4,5-1.3
			c1.5-0.9,2.7-2.1,3.5-3.7c0.9-1.6,1.3-3.5,1.3-5.7c0-1.9-0.4-3.5-1.2-4.9C24.6,17.4,23.5,16.3,21.9,15.5z"/>
		<path class="st0" d="M37.1,3.2h-5.6v24.2c0,2.2,0.6,3.9,1.9,5.2c1.3,1.3,3,1.9,5.2,1.9h6.2v-4.8h-5.2c-0.7,0-1.4-0.2-1.8-0.7
			c-0.5-0.5-0.7-1.1-0.7-1.8v-13h7.8V9.4h-7.8V3.2z"/>
		<path class="st0" d="M67.9,10.6C66,9.4,63.7,8.9,61,8.9s-5.1,0.6-7.1,1.7c-2,1.2-3.5,2.7-4.6,4.7s-1.6,4.2-1.6,6.7
			c0,2.4,0.5,4.6,1.4,6.5c0.9,2,2.3,3.5,4,4.7s3.8,1.8,6.2,1.8c1.5,0,2.9-0.2,4-0.7c1.1-0.5,2.1-1.1,2.9-1.9
			c0.8-0.8,1.4-1.7,1.9-2.6h0.1v4.7h5.6V21.9c0-2.4-0.5-4.6-1.5-6.6S69.8,11.8,67.9,10.6z M67.2,26.2c-0.6,1.3-1.5,2.3-2.6,3
			s-2.4,1.1-3.9,1.1c-1.6,0-2.9-0.4-4-1.1s-1.9-1.7-2.5-3s-0.9-2.6-0.9-4.2s0.3-3,0.9-4.2c0.6-1.2,1.4-2.2,2.5-3
			c1.1-0.7,2.4-1.1,4-1.1c1.5,0,2.8,0.4,3.9,1.1c1.1,0.7,1.9,1.7,2.5,2.9s0.9,2.6,0.9,4.2C68.1,23.5,67.9,24.9,67.2,26.2z"/>
		<path class="st0" d="M81.2,11.4c-1.3,1.3-1.9,3-1.9,5.2v17.9h5.6V16.8c0-0.8,0.2-1.4,0.7-1.9c0.4-0.5,1.1-0.7,1.8-0.7h6.3V9.4
			h-7.3C84.2,9.4,82.4,10.1,81.2,11.4z"/>
		<path class="st0" d="M103.4,3.2h-5.6v24.2c0,2.2,0.6,3.9,1.9,5.2c1.3,1.3,3,1.9,5.2,1.9h6.2v-4.8h-5.2c-0.7,0-1.4-0.2-1.8-0.7
			c-0.5-0.5-0.7-1.1-0.7-1.8v-13h7.8V9.4h-7.8V3.2z"/>
		<path class="st0" d="M138.5,21.5c0,1.5-0.3,2.9-1,4.2c-0.6,1.3-1.6,2.3-2.8,3c-1.2,0.8-2.6,1.2-4.3,1.2c-1.6,0-3.1-0.4-4.3-1.2
			c-1.2-0.8-2.2-1.8-2.8-3c-0.7-1.3-1-2.6-1-4.2V0.2h-5.8v20.9c0,2.9,0.6,5.4,1.8,7.5c1.2,2.1,2.8,3.7,4.9,4.8s4.5,1.7,7.2,1.7
			c2.7,0,5.1-0.6,7.2-1.7s3.7-2.7,4.9-4.8s1.8-4.6,1.8-7.5V0.2h-5.9L138.5,21.5L138.5,21.5z"/>
		<path class="st0" d="M170.6,22.5c-0.7-1.1-1.6-1.9-2.9-2.5c-1.3-0.6-2.8-0.8-4.6-0.8h-4.7c-0.8,0-1.5-0.2-2-0.7s-0.7-1.1-0.7-1.7
			c0-0.7,0.2-1.3,0.7-1.7s1.1-0.7,1.9-0.7h11.1V9.5h-11.6c-1.4,0-2.7,0.3-3.9,1c-1.1,0.7-2,1.6-2.7,2.7s-1,2.3-1,3.7
			c0,1.7,0.4,3,1.1,4.1c0.7,1.1,1.7,1.9,2.9,2.4s2.7,0.8,4.3,0.8h4.9c0.6,0,1.1,0.1,1.5,0.4s0.7,0.6,1,1c0.2,0.4,0.3,0.8,0.3,1.4
			c0,0.5-0.1,0.9-0.4,1.3c-0.2,0.4-0.6,0.8-1,1c-0.4,0.3-1,0.4-1.5,0.4h-12.1v4.8h12.6c1.5,0,2.9-0.4,4-1.1c1.2-0.7,2.1-1.7,2.8-2.8
			c0.7-1.2,1-2.5,1-3.9C171.6,25,171.3,23.6,170.6,22.5z"/>
	</g>
</g>
</svg>
